<svg width="512" height="512" viewBox="0 0 512 512" fill="none" xmlns="http://www.w3.org/2000/svg" role="img" aria-labelledby="title desc">
  <title id="title">AICloudStrategist mark</title>
  <desc id="desc">A shield and data-flow monogram for AICloudStrategist compliance and AI governance services.</desc>
  <rect width="512" height="512" rx="112" fill="#071827"/>
  <path d="M256 70L399 126V231C399 324 340 403 256 442C172 403 113 324 113 231V126L256 70Z" fill="#0F2438" stroke="#2DE2C5" stroke-width="18"/>
  <path d="M171 309L226 174H254L309 309H275L265 282H213L203 309H171ZM222 254H256L239 207L222 254Z" fill="#F6FBFF"/>
  <path d="M317 180H351V309H317V180Z" fill="#2DE2C5"/>
  <path d="M157 349H355" stroke="#7AA7FF" stroke-width="18" stroke-linecap="round"/>
  <path d="M178 127C216 148 296 148 334 127" stroke="#7AA7FF" stroke-width="14" stroke-linecap="round"/>
  <circle cx="157" cy="349" r="16" fill="#2DE2C5"/>
  <circle cx="355" cy="349" r="16" fill="#2DE2C5"/>
</svg>
