<svg xmlns="http://www.w3.org/2000/svg" width="960" height="720" viewBox="0 0 960 720" role="img" aria-labelledby="title desc">
  <title id="title">Indian small business digital growth illustration</title>
  <desc id="desc">A shop, factory, clinic and digital dashboard connected with WhatsApp, website, automation, compliance and growth tracking icons.</desc>
  <defs>
    <linearGradient id="bg" x1="0" x2="1" y1="0" y2="1"><stop offset="0" stop-color="#ecfeff"/><stop offset="0.55" stop-color="#eef6ff"/><stop offset="1" stop-color="#fff7e6"/></linearGradient>
    <linearGradient id="brand" x1="0" x2="1"><stop offset="0" stop-color="#20d6bc"/><stop offset="1" stop-color="#3157d5"/></linearGradient>
    <filter id="shadow" x="-20%" y="-20%" width="140%" height="140%"><feDropShadow dx="0" dy="18" stdDeviation="18" flood-color="#071827" flood-opacity=".15"/></filter>
  </defs>
  <rect width="960" height="720" rx="42" fill="url(#bg)"/>
  <circle cx="802" cy="92" r="86" fill="#20d6bc" opacity=".14"/>
  <circle cx="126" cy="606" r="108" fill="#3157d5" opacity=".10"/>
  <g filter="url(#shadow)">
    <rect x="72" y="88" width="816" height="544" rx="30" fill="#fff"/>
  </g>
  <rect x="112" y="128" width="380" height="260" rx="24" fill="#071827"/>
  <rect x="142" y="162" width="320" height="48" rx="16" fill="url(#brand)"/>
  <text x="162" y="193" font-family="Inter,Arial,sans-serif" font-size="22" font-weight="800" fill="#fff">Business Digital Front Office</text>
  <rect x="142" y="236" width="96" height="96" rx="18" fill="#fff" opacity=".96"/>
  <text x="160" y="270" font-size="28">🏪</text><text x="156" y="306" font-family="Arial" font-size="15" font-weight="700" fill="#071827">Shop</text>
  <rect x="256" y="236" width="96" height="96" rx="18" fill="#fff" opacity=".96"/>
  <text x="274" y="270" font-size="28">🏭</text><text x="269" y="306" font-family="Arial" font-size="15" font-weight="700" fill="#071827">Factory</text>
  <rect x="370" y="236" width="92" height="96" rx="18" fill="#fff" opacity=".96"/>
  <text x="388" y="270" font-size="28">🏥</text><text x="393" y="306" font-family="Arial" font-size="15" font-weight="700" fill="#071827">Clinic</text>
  <g transform="translate(540 128)">
    <rect width="276" height="408" rx="28" fill="#f8fbff" stroke="#dbe7ef" stroke-width="3"/>
    <rect x="28" y="30" width="220" height="56" rx="16" fill="#e9fbf6"/>
    <text x="48" y="66" font-family="Arial" font-size="20" font-weight="800" fill="#0c6b55">Today's Leads</text>
    <rect x="28" y="112" width="220" height="46" rx="13" fill="#fff" stroke="#dbe7ef"/><circle cx="54" cy="135" r="12" fill="#25D366"/><text x="76" y="141" font-family="Arial" font-size="16" fill="#172033">WhatsApp enquiry</text>
    <rect x="28" y="174" width="220" height="46" rx="13" fill="#fff" stroke="#dbe7ef"/><circle cx="54" cy="197" r="12" fill="#3157d5"/><text x="76" y="203" font-family="Arial" font-size="16" fill="#172033">Call back due</text>
    <rect x="28" y="236" width="220" height="46" rx="13" fill="#fff" stroke="#dbe7ef"/><circle cx="54" cy="259" r="12" fill="#f4b63f"/><text x="76" y="265" font-family="Arial" font-size="16" fill="#172033">Quote follow-up</text>
    <rect x="28" y="312" width="100" height="56" rx="14" fill="#071827"/><text x="50" y="347" font-family="Arial" font-size="18" font-weight="800" fill="#fff">27</text><text x="32" y="365" font-family="Arial" font-size="11" fill="#c7f8ee">enquiries</text>
    <rect x="148" y="312" width="100" height="56" rx="14" fill="#20d6bc"/><text x="184" y="347" font-family="Arial" font-size="18" font-weight="800" fill="#071827">8</text><text x="158" y="365" font-family="Arial" font-size="11" fill="#071827">follow-ups</text>
  </g>
  <g font-family="Arial" font-size="17" font-weight="800">
    <rect x="118" y="444" width="144" height="52" rx="18" fill="#e9fbf6"/><text x="145" y="476" fill="#0c6b55">Website</text>
    <rect x="284" y="444" width="144" height="52" rx="18" fill="#eef2ff"/><text x="314" y="476" fill="#3157d5">WhatsApp</text>
    <rect x="118" y="518" width="144" height="52" rx="18" fill="#fff8e6"/><text x="139" y="550" fill="#8a5a00">Automation</text>
    <rect x="284" y="518" width="144" height="52" rx="18" fill="#f2f7fb"/><text x="316" y="550" fill="#071827">Trust</text>
  </g>
</svg>
